<svg width="15" height="14" viewBox="0 0 15 14" fill="none" xmlns="http://www.w3.org/2000/svg">
<path d="M9.2608 6.99901L14.6306 1.99813C14.8658 1.77862 14.9979 1.48091 14.9979 1.17048C14.9979 0.860046 14.8658 0.562331 14.6306 0.342824C14.3955 0.123318 14.0765 0 13.744 0C13.4114 0 13.0925 0.123318 12.8573 0.342824L7.5 5.35536L2.14268 0.342824C1.90752 0.123318 1.58859 -2.31288e-09 1.25603 0C0.923478 2.31288e-09 0.604543 0.123318 0.369391 0.342824C0.134239 0.562331 0.00213119 0.860046 0.00213119 1.17048C0.00213119 1.48091 0.134239 1.77862 0.369391 1.99813L5.7392 6.99901L0.369391 11.9999C0.252343 12.1083 0.159441 12.2372 0.0960411 12.3792C0.0326416 12.5213 0 12.6736 0 12.8275C0 12.9814 0.0326416 13.1338 0.0960411 13.2758C0.159441 13.4179 0.252343 13.5468 0.369391 13.6552C0.485482 13.7644 0.6236 13.8512 0.775777 13.9103C0.927954 13.9695 1.09118 14 1.25603 14C1.42089 14 1.58411 13.9695 1.73629 13.9103C1.88847 13.8512 2.02659 13.7644 2.14268 13.6552L7.5 8.64265L12.8573 13.6552C12.9734 13.7644 13.1115 13.8512 13.2637 13.9103C13.4159 13.9695 13.5791 14 13.744 14C13.9088 14 14.072 13.9695 14.2242 13.9103C14.3764 13.8512 14.5145 13.7644 14.6306 13.6552C14.7477 13.5468 14.8406 13.4179 14.904 13.2758C14.9674 13.1338 15 12.9814 15 12.8275C15 12.6736 14.9674 12.5213 14.904 12.3792C14.8406 12.2372 14.7477 12.1083 14.6306 11.9999L9.2608 6.99901Z" fill="#EAECF0"/>
</svg>
